<?xml version="1.0" standalone="no"?>
<!DOCTYPE svg PUBLIC "-//W3C//DTD SVG 20010904//EN"
 "http://www.w3.org/TR/2001/REC-SVG-20010904/DTD/svg10.dtd">
<svg version="1.0" xmlns="http://www.w3.org/2000/svg"
 width="526.000000pt" height="286.000000pt" viewBox="0 0 526.000000 286.000000"
 preserveAspectRatio="xMidYMid meet">

<g transform="translate(0.000000,286.000000) scale(0.100000,-0.100000)"
fill="rgb(218, 18, 178)" stroke="none">
<path d="M1866 2271 c-12 -22 -16 -61 -16 -148 0 -65 -4 -124 -9 -132 -6 -9
-38 -17 -87 -21 -44 -4 -94 -15 -111 -25 -64 -33 -35 -50 99 -60 82 -6 98 -10
103 -26 3 -10 4 -246 2 -526 -3 -279 -1 -544 3 -588 16 -154 52 -206 75 -110
38 160 40 183 41 700 0 281 1 515 2 521 1 6 46 16 100 23 109 15 132 23 132
51 0 23 -45 38 -148 47 -40 3 -75 9 -77 13 -2 4 -7 49 -10 101 -5 75 -12 105
-34 148 -15 30 -33 57 -39 59 -6 2 -18 -10 -26 -27z"/>
<path d="M3646 2097 c-4 -24 -22 -76 -40 -114 -55 -115 -116 -150 -265 -152
-25 -1 -65 -11 -89 -22 -56 -27 -82 -81 -93 -192 -11 -113 -18 -135 -47 -162
-20 -18 -38 -25 -69 -25 -23 0 -44 4 -48 10 -6 10 -7 297 -1 375 5 66 -11 176
-28 193 -12 12 -16 11 -30 -9 -44 -68 -77 -299 -64 -452 8 -102 3 -127 -28
-127 -19 0 -36 -37 -29 -61 4 -11 21 -25 37 -31 l30 -11 -7 -66 c-28 -230 9
-660 57 -669 13 -3 18 9 24 55 4 32 8 60 9 63 11 48 16 149 19 347 4 263 6
273 58 273 68 0 96 -35 113 -145 17 -109 38 -184 58 -208 20 -25 33 -29 127
-42 220 -30 392 -131 464 -273 15 -30 32 -51 39 -49 7 3 11 10 9 17 -32 137
-75 224 -133 274 -85 72 -306 156 -413 156 -20 0 -38 6 -41 13 -2 6 -6 49 -9
93 -7 101 -22 173 -43 196 -14 15 -13 21 5 60 18 40 30 99 50 238 l7 55 80 6
c118 9 143 17 192 62 73 68 103 151 115 319 4 53 -8 57 -16 5z"/>
<path d="M3779 1953 c-27 -57 -36 -141 -17 -165 18 -23 59 -32 81 -16 28 21
31 131 5 186 -11 23 -26 42 -33 42 -7 0 -23 -21 -36 -47z"/>
<path d="M362 1890 c-28 -26 -28 -33 2 -67 23 -27 28 -28 107 -26 55 2 86 -2
91 -10 4 -6 7 -149 7 -317 0 -168 5 -359 10 -424 10 -116 6 -202 -10 -211 -6
-4 -45 -10 -109 -17 -51 -5 -102 4 -118 20 -16 16 -20 41 -25 163 -3 79 -10
158 -15 174 -10 35 -47 47 -56 18 -3 -10 -7 -100 -8 -200 -2 -171 -1 -184 18
-210 27 -36 72 -43 236 -36 117 6 129 8 149 29 12 13 26 45 31 71 5 27 12 248
14 493 3 245 9 449 13 453 4 4 25 10 47 13 102 13 104 14 104 37 0 44 -15 52
-107 59 -48 3 -149 7 -224 7 -123 1 -137 -1 -157 -19z"/>
<path d="M982 1880 c-13 -12 -21 -29 -18 -37 3 -8 6 -18 6 -23 0 -4 16 -15 35
-24 28 -14 50 -16 105 -10 56 5 70 4 71 -7 1 -8 3 -156 5 -329 2 -173 7 -360
11 -416 5 -55 6 -124 5 -153 -4 -46 -7 -54 -31 -63 -34 -13 -182 -14 -206 0
-11 5 -24 27 -30 49 -8 28 -16 39 -34 41 -13 2 -28 -1 -34 -7 -17 -17 -18 -67
-2 -103 25 -61 32 -63 208 -61 214 3 213 2 223 197 3 69 7 285 8 480 1 245 4
358 12 366 6 6 38 14 70 17 32 3 65 10 72 16 18 14 15 41 -6 61 -16 13 -53 17
-233 22 -212 6 -214 6 -237 -16z"/>
<path d="M3769 1679 c-21 -21 -21 -28 -16 -193 6 -179 25 -331 53 -429 17 -57
38 -86 52 -73 7 7 8 162 3 524 -1 137 -3 154 -21 172 -26 26 -45 25 -71 -1z"/>
<path d="M1433 1665 c-46 -20 -53 -39 -42 -130 4 -43 9 -175 9 -292 0 -118 4
-222 9 -232 6 -10 26 -30 46 -46 33 -25 45 -27 120 -27 68 -1 90 3 118 21 63
39 61 30 68 330 4 152 10 287 13 301 10 36 -29 79 -74 82 -29 3 -36 -1 -48
-25 -11 -22 -11 -31 -1 -43 9 -11 11 -72 6 -262 -7 -235 -8 -248 -28 -264 -26
-22 -82 -23 -100 -2 -10 12 -14 83 -16 297 -3 182 -8 285 -15 294 -13 16 -25
16 -65 -2z"/>
<path d="M3394 1656 c-17 -8 -34 -22 -39 -32 -13 -33 -15 -197 -3 -212 9 -10
9 -29 0 -75 -6 -34 -14 -88 -17 -119 -6 -52 -4 -60 19 -83 45 -45 86 -28 86
37 0 42 18 52 81 46 l34 -3 5 -88 c5 -95 18 -117 66 -117 38 0 47 23 40 100
-4 38 -9 169 -11 292 l-4 223 -26 23 c-23 19 -37 22 -113 22 -50 -1 -100 -6
-118 -14z m159 -100 c15 -18 17 -33 11 -111 -3 -49 -10 -97 -15 -106 -19 -37
-83 -27 -99 16 -13 33 -10 206 3 223 14 18 78 4 100 -22z"/>
<path d="M1021 1633 c-20 -17 -21 -27 -22 -188 0 -93 2 -197 6 -230 5 -53 3
-63 -18 -88 -27 -32 -94 -49 -107 -26 -8 11 -16 287 -11 374 3 56 -7 75 -38
75 -16 0 -39 -8 -51 -18 -23 -18 -23 -21 -12 -108 6 -50 9 -139 5 -205 -8
-159 -2 -184 48 -209 54 -28 184 -32 222 -7 41 27 50 53 47 141 -4 102 -3 115
5 320 7 139 5 170 -6 177 -22 14 -45 11 -68 -8z"/>
<path d="M2115 1606 c-17 -7 -43 -28 -58 -45 -25 -31 -27 -38 -27 -134 0 -56
4 -107 8 -113 4 -6 34 -24 66 -38 44 -20 69 -26 93 -21 18 3 41 1 52 -4 24
-14 36 -63 21 -91 -11 -20 -16 -21 -96 -14 -73 6 -87 4 -104 -11 -27 -25 -25
-46 8 -78 21 -20 41 -27 93 -33 58 -6 71 -3 115 19 29 15 61 41 76 64 26 37
27 42 21 141 -4 70 -11 108 -20 118 -11 11 -39 13 -116 12 -56 -2 -108 1 -114
5 -30 19 3 103 43 113 12 3 61 9 110 12 l89 7 3 32 c2 22 -3 38 -17 52 -18 18
-33 21 -118 21 -59 -1 -110 -6 -128 -14z"/>
<path d="M4010 1604 c-19 -9 -46 -29 -60 -47 -23 -29 -25 -39 -24 -135 1 -117
2 -117 81 -151 38 -15 63 -20 91 -15 50 8 72 -13 72 -66 0 -47 -10 -51 -104
-44 -88 8 -116 -3 -116 -46 0 -43 38 -67 117 -76 59 -6 72 -4 110 16 24 13 57
38 73 56 29 34 29 35 26 144 -4 141 -6 143 -111 139 -143 -5 -145 -4 -145 36
0 24 8 44 24 60 23 23 48 28 186 38 33 2 35 5 38 39 5 55 -21 68 -133 67 -57
0 -103 -6 -125 -15z"/>
<path d="M4705 1581 c-36 -5 -40 -9 -43 -39 -3 -28 0 -34 27 -43 20 -7 31 -19
35 -37 3 -15 5 -130 4 -257 -1 -255 8 -383 25 -366 7 7 15 7 22 1 9 -7 17 8
30 53 15 51 20 110 24 327 l6 265 41 3 c64 5 69 -8 69 -167 0 -75 -4 -205 -9
-288 -5 -97 -5 -153 1 -153 62 0 131 353 114 583 -5 70 -9 81 -34 103 -27 23
-35 24 -150 23 -67 -1 -140 -5 -162 -8z"/>
<path d="M4334 1567 c-3 -9 -1 -32 6 -52 15 -45 58 -70 103 -58 18 4 37 8 43
8 23 1 124 58 124 70 0 30 -33 39 -151 43 -102 4 -120 2 -125 -11z"/>
<path d="M2441 1511 c-10 -7 -12 -22 -6 -67 4 -33 7 -122 7 -198 -1 -78 4
-148 9 -158 32 -60 227 -64 289 -6 20 19 21 28 18 156 -1 76 1 160 6 188 6 41
4 54 -9 68 -16 16 -85 23 -86 9 0 -5 -2 -84 -5 -178 -2 -93 -7 -176 -9 -182
-2 -8 -21 -13 -43 -13 -51 0 -92 41 -86 85 8 46 4 279 -4 286 -13 13 -67 19
-81 10z"/>
<path d="M4346 1367 c-24 -18 -14 -66 19 -97 22 -20 31 -22 84 -17 74 8 161
44 161 68 0 28 -21 36 -128 48 -126 13 -115 14 -136 -2z"/>
<path d="M4390 1171 c-49 -5 -55 -9 -58 -31 -1 -14 7 -40 18 -59 21 -33 22
-33 83 -29 34 2 82 13 107 25 25 11 53 23 63 26 20 7 22 30 5 44 -12 9 -56 18
-133 27 -16 2 -55 1 -85 -3z"/>
</g>
</svg>
