<?xml version="1.0" standalone="no"?>
<!DOCTYPE svg PUBLIC "-//W3C//DTD SVG 20010904//EN"
 "http://www.w3.org/TR/2001/REC-SVG-20010904/DTD/svg10.dtd">
<svg version="1.0" xmlns="http://www.w3.org/2000/svg"
 width="500.000000pt" height="500.000000pt" viewBox="0 0 500.000000 500.000000"
 preserveAspectRatio="xMidYMid meet">

<g transform="translate(0.000000,500.000000) scale(0.100000,-0.100000)"
fill="#000000" stroke="none">
<path d="M2535 4083 c-163 -21 -386 -90 -532 -166 -151 -76 -273 -167 -403
-297 -217 -217 -355 -466 -428 -775 -25 -102 -27 -127 -27 -340 0 -217 2 -237
29 -349 148 -628 602 -1076 1236 -1219 131 -30 489 -32 620 -4 286 62 513 173
740 363 l95 79 -120 12 c-158 17 -258 38 -380 80 -527 182 -918 614 -1041
1153 -113 495 9 996 338 1388 l69 82 -83 -1 c-46 -1 -96 -4 -113 -6z"/>
</g>
</svg>
