<?xml version="1.0" standalone="no"?>
<!DOCTYPE svg PUBLIC "-//W3C//DTD SVG 20010904//EN"
 "http://www.w3.org/TR/2001/REC-SVG-20010904/DTD/svg10.dtd">
<svg version="1.0" xmlns="http://www.w3.org/2000/svg"
 width="500.000000pt" height="500.000000pt" viewBox="0 0 500.000000 500.000000"
 preserveAspectRatio="xMidYMid meet">

<g transform="translate(0.000000,500.000000) scale(0.100000,-0.100000)"
fill="#000000" stroke="none">
<path d="M2325 4994 c-230 -23 -432 -63 -597 -118 -386 -130 -714 -331 -993
-611 -385 -386 -622 -856 -707 -1400 -31 -199 -31 -530 0 -730 78 -504 282
-932 624 -1316 278 -310 654 -554 1075 -694 254 -85 471 -119 773 -119 302 0
519 34 773 119 385 128 712 330 992 610 385 385 623 857 707 1400 31 199 31
531 0 730 -42 268 -113 496 -232 740 -120 245 -277 462 -485 670 -218 218
-486 399 -769 519 -311 133 -595 194 -936 200 -102 2 -203 2 -225 0z m250
-672 c55 -40 57 -51 53 -385 l-3 -309 -37 -34 c-32 -28 -45 -34 -84 -34 -53 0
-94 21 -118 60 -14 24 -16 69 -16 332 0 286 1 305 20 336 37 60 127 77 185 34z
m-1255 -482 c26 -7 88 -63 249 -223 204 -205 213 -216 218 -259 10 -84 -49
-148 -136 -148 l-45 0 -218 217 c-151 150 -221 228 -229 251 -16 48 2 104 44
136 27 20 42 27 77 35 3 0 21 -4 40 -9z m2440 -6 c44 -18 77 -56 80 -94 7 -77
9 -74 -207 -292 -115 -115 -220 -216 -235 -224 -15 -8 -46 -14 -69 -14 -35 0
-48 6 -80 39 -36 35 -39 43 -39 92 l0 53 218 218 c197 199 236 231 284 237 4
1 26 -6 48 -15z m-1151 -414 c160 -21 327 -89 449 -184 158 -122 268 -283 329
-483 24 -80 26 -104 27 -253 1 -193 -9 -239 -83 -395 -103 -215 -270 -374
-485 -460 -115 -47 -215 -65 -353 -65 -247 1 -445 79 -621 244 -178 168 -268
352 -292 594 -28 275 69 541 267 738 204 201 487 299 762 264z m-1208 -829
c35 -35 39 -44 39 -91 0 -47 -4 -56 -39 -91 l-39 -39 -308 0 c-285 0 -311 2
-340 19 -32 20 -64 74 -64 110 0 40 28 90 62 111 31 19 50 20 342 20 l308 0
39 -39z m2882 20 c44 -28 59 -58 59 -111 0 -53 -19 -88 -64 -114 -22 -14 -70
-16 -328 -16 -342 0 -344 0 -381 77 -31 64 -14 124 48 164 26 17 53 19 333 19
280 0 307 -2 333 -19z m-2552 -844 c57 -38 76 -107 45 -165 -8 -15 -107 -119
-220 -231 l-204 -204 -54 -5 c-66 -5 -115 24 -137 81 -27 71 -14 90 227 330
l218 217 46 0 c30 0 56 -7 79 -23z m1667 9 c15 -8 120 -108 235 -223 l207
-209 0 -48 c0 -91 -57 -143 -145 -134 -47 6 -52 10 -267 225 l-218 219 0 53
c0 49 3 57 39 92 32 33 45 39 80 39 23 0 54 -6 69 -14z m-838 -346 c8 -5 26
-20 40 -35 l25 -27 3 -301 c2 -166 1 -312 -2 -323 -9 -35 -65 -82 -106 -89
-50 -9 -104 15 -130 57 -19 31 -20 50 -20 338 0 272 2 308 17 330 42 61 112
81 173 50z"/>
</g>
</svg>
